<svg xmlns="http://www.w3.org/2000/svg" width="384" height="324" viewBox="0 0 384 324">
<defs><marker id="elk-ts-arrow" markerWidth="10" markerHeight="10" refX="9" refY="3" orient="auto"><path d="M0,0 L0,6 L9,3 z" fill="#94a3b8"/></marker></defs>

<g transform="translate(12, 12)">
<g transform="translate(20, 20)">
<rect x="0" y="0" width="80" height="30" fill="#64748b0d" stroke="#64748b" stroke-width="1" rx="6"/>
<text x="40" y="18" text-anchor="middle" font-family="system-ui, sans-serif" font-size="12" fill="#94a3b8">Producer A</text>
</g>
<g transform="translate(140, 20)">
<rect x="0" y="0" width="80" height="30" fill="#64748b0d" stroke="#64748b" stroke-width="1" rx="6"/>
<text x="40" y="18" text-anchor="middle" font-family="system-ui, sans-serif" font-size="12" fill="#94a3b8">Producer B</text>
</g>
<g transform="translate(260, 20)">
<rect x="0" y="0" width="80" height="30" fill="#64748b0d" stroke="#64748b" stroke-width="1" rx="6"/>
<text x="40" y="18" text-anchor="middle" font-family="system-ui, sans-serif" font-size="12" fill="#94a3b8">Producer C</text>
</g>
<g transform="translate(20, 250)">
<rect x="0" y="0" width="80" height="30" fill="#64748b0d" stroke="#64748b" stroke-width="1" rx="6"/>
<text x="40" y="18" text-anchor="middle" font-family="system-ui, sans-serif" font-size="12" fill="#94a3b8">Consumer X</text>
</g>
<g transform="translate(140, 250)">
<rect x="0" y="0" width="80" height="30" fill="#64748b0d" stroke="#64748b" stroke-width="1" rx="6"/>
<text x="40" y="18" text-anchor="middle" font-family="system-ui, sans-serif" font-size="12" fill="#94a3b8">Consumer Y</text>
</g>
<g transform="translate(140, 130)">
<rect x="0" y="0" width="80" height="40" fill="#64748b0d" stroke="#64748b" stroke-width="1" rx="6"/>
<text x="40" y="23" text-anchor="middle" font-family="system-ui, sans-serif" font-size="12" fill="#94a3b8">Merge</text>
</g>
<polyline points="60,50 60,90 180,90" fill="none" stroke="#94a3b8" stroke-width="1" marker-end="url(#elk-ts-arrow)"/><polyline points="180,50 180,90 180,90" fill="none" stroke="#94a3b8" stroke-width="1" marker-end="url(#elk-ts-arrow)"/><polyline points="300,50 300,90 180,90" fill="none" stroke="#94a3b8" stroke-width="1" marker-end="url(#elk-ts-arrow)"/><polyline points="180,90 180,90 180,130" fill="none" stroke="#94a3b8" stroke-width="1" marker-end="url(#elk-ts-arrow)"/>
<polyline points="180,170 180,210 140,210" fill="none" stroke="#94a3b8" stroke-width="1" marker-end="url(#elk-ts-arrow)"/><polyline points="140,210 60,210 60,250" fill="none" stroke="#94a3b8" stroke-width="1" marker-end="url(#elk-ts-arrow)"/><polyline points="140,210 180,210 180,250" fill="none" stroke="#94a3b8" stroke-width="1" marker-end="url(#elk-ts-arrow)"/>
</g>
</svg>