<svg xmlns="http://www.w3.org/2000/svg" width="354" height="1064" viewBox="0 0 354 1064">
<defs><marker id="elk-ts-arrow" markerWidth="10" markerHeight="10" refX="9" refY="3" orient="auto"><path d="M0,0 L0,6 L9,3 z" fill="#94a3b8"/></marker></defs>

<g transform="translate(12, 12)">
<g transform="translate(20, 20)">
<rect x="0" y="0" width="80" height="40" fill="#64748b0d" stroke="#64748b" stroke-width="1" rx="6"/>
<text x="40" y="23" text-anchor="middle" font-family="system-ui, sans-serif" font-size="12" fill="#94a3b8">Start</text>
</g>
<g transform="translate(20, 140)">
<rect x="0" y="0" width="80" height="40" fill="#64748b0d" stroke="#64748b" stroke-width="1" rx="6"/>
<text x="40" y="23" text-anchor="middle" font-family="system-ui, sans-serif" font-size="12" fill="#94a3b8">Read input</text>
</g>
<g transform="translate(140, 260)">
<rect x="0" y="0" width="100" height="60" fill="#64748b0d" stroke="#64748b" stroke-width="1" rx="6"/>
<text x="50" y="33" text-anchor="middle" font-family="system-ui, sans-serif" font-size="12" fill="#94a3b8">Valid?</text>
</g>
<g transform="translate(190, 400)">
<rect x="0" y="0" width="60" height="30" fill="#64748b0d" stroke="#64748b" stroke-width="1" rx="6"/>
<text x="30" y="18" text-anchor="middle" font-family="system-ui, sans-serif" font-size="12" fill="#94a3b8">Yes</text>
</g>
<g transform="translate(90, 400)">
<rect x="0" y="0" width="60" height="30" fill="#64748b0d" stroke="#64748b" stroke-width="1" rx="6"/>
<text x="30" y="18" text-anchor="middle" font-family="system-ui, sans-serif" font-size="12" fill="#94a3b8">No</text>
</g>
<g transform="translate(70, 510)">
<rect x="0" y="0" width="100" height="40" fill="#64748b0d" stroke="#64748b" stroke-width="1" rx="6"/>
<text x="50" y="23" text-anchor="middle" font-family="system-ui, sans-serif" font-size="12" fill="#94a3b8">Process</text>
</g>
<g transform="translate(210, 510)">
<rect x="0" y="0" width="100" height="40" fill="#64748b0d" stroke="#64748b" stroke-width="1" rx="6"/>
<text x="50" y="23" text-anchor="middle" font-family="system-ui, sans-serif" font-size="12" fill="#94a3b8">Report error</text>
</g>
<g transform="translate(20, 630)">
<rect x="0" y="0" width="60" height="30" fill="#64748b0d" stroke="#64748b" stroke-width="1" rx="6"/>
<text x="30" y="18" text-anchor="middle" font-family="system-ui, sans-serif" font-size="12" fill="#94a3b8">Join</text>
</g>
<g transform="translate(20, 740)">
<rect x="0" y="0" width="100" height="40" fill="#64748b0d" stroke="#64748b" stroke-width="1" rx="6"/>
<text x="50" y="23" text-anchor="middle" font-family="system-ui, sans-serif" font-size="12" fill="#94a3b8">Validate</text>
</g>
<g transform="translate(20, 860)">
<rect x="0" y="0" width="80" height="40" fill="#64748b0d" stroke="#64748b" stroke-width="1" rx="6"/>
<text x="40" y="23" text-anchor="middle" font-family="system-ui, sans-serif" font-size="12" fill="#94a3b8">Write output</text>
</g>
<g transform="translate(20, 980)">
<rect x="0" y="0" width="80" height="40" fill="#64748b0d" stroke="#64748b" stroke-width="1" rx="6"/>
<text x="40" y="23" text-anchor="middle" font-family="system-ui, sans-serif" font-size="12" fill="#94a3b8">End</text>
</g>
<polyline points="60,60 60,140" fill="none" stroke="#94a3b8" stroke-width="1" marker-end="url(#elk-ts-arrow)"/>
<polyline points="60,180 60,220 190,220 190,260" fill="none" stroke="#94a3b8" stroke-width="1" marker-end="url(#elk-ts-arrow)"/>
<polyline points="190,320 190,360 220,360 220,400" fill="none" stroke="#94a3b8" stroke-width="1" marker-end="url(#elk-ts-arrow)"/>
<polyline points="190,320 190,360 120,360 120,400" fill="none" stroke="#94a3b8" stroke-width="1" marker-end="url(#elk-ts-arrow)"/>
<polyline points="220,430 220,470 120,470 120,510" fill="none" stroke="#94a3b8" stroke-width="1" marker-end="url(#elk-ts-arrow)"/>
<polyline points="120,430 120,470 260,470 260,510" fill="none" stroke="#94a3b8" stroke-width="1" marker-end="url(#elk-ts-arrow)"/>
<polyline points="120,550 120,590 50,590 50,630" fill="none" stroke="#94a3b8" stroke-width="1" marker-end="url(#elk-ts-arrow)"/>
<polyline points="260,550 260,590 50,590 50,630" fill="none" stroke="#94a3b8" stroke-width="1" marker-end="url(#elk-ts-arrow)"/>
<polyline points="50,660 50,700 70,700 70,740" fill="none" stroke="#94a3b8" stroke-width="1" marker-end="url(#elk-ts-arrow)"/>
<polyline points="70,780 70,820 60,820 60,860" fill="none" stroke="#94a3b8" stroke-width="1" marker-end="url(#elk-ts-arrow)"/>
<polyline points="60,900 60,980" fill="none" stroke="#94a3b8" stroke-width="1" marker-end="url(#elk-ts-arrow)"/>
</g>
</svg>