<svg xmlns="http://www.w3.org/2000/svg" width="384" height="324" viewBox="0 0 384 324">
<defs><marker id="elk-ts-arrow" markerWidth="10" markerHeight="10" refX="9" refY="3" orient="auto"><path d="M0,0 L0,6 L9,3 z" fill="#374151"/></marker></defs>
<rect x="0" y="0" width="384" height="324" fill="#f8f9fa"/>
<g transform="translate(12, 12)">
<g transform="translate(20, 20)">
<rect x="0" y="0" width="80" height="30" fill="#ffffff" stroke="#1f2937" stroke-width="1.5" rx="4"/>
<text x="40" y="18" text-anchor="middle" font-family="system-ui, sans-serif" font-size="12" fill="#111827">Producer A</text>
</g>
<g transform="translate(140, 20)">
<rect x="0" y="0" width="80" height="30" fill="#ffffff" stroke="#1f2937" stroke-width="1.5" rx="4"/>
<text x="40" y="18" text-anchor="middle" font-family="system-ui, sans-serif" font-size="12" fill="#111827">Producer B</text>
</g>
<g transform="translate(260, 20)">
<rect x="0" y="0" width="80" height="30" fill="#ffffff" stroke="#1f2937" stroke-width="1.5" rx="4"/>
<text x="40" y="18" text-anchor="middle" font-family="system-ui, sans-serif" font-size="12" fill="#111827">Producer C</text>
</g>
<g transform="translate(20, 250)">
<rect x="0" y="0" width="80" height="30" fill="#ffffff" stroke="#1f2937" stroke-width="1.5" rx="4"/>
<text x="40" y="18" text-anchor="middle" font-family="system-ui, sans-serif" font-size="12" fill="#111827">Consumer X</text>
</g>
<g transform="translate(140, 250)">
<rect x="0" y="0" width="80" height="30" fill="#ffffff" stroke="#1f2937" stroke-width="1.5" rx="4"/>
<text x="40" y="18" text-anchor="middle" font-family="system-ui, sans-serif" font-size="12" fill="#111827">Consumer Y</text>
</g>
<g transform="translate(140, 130)">
<rect x="0" y="0" width="80" height="40" fill="#ffffff" stroke="#1f2937" stroke-width="1.5" rx="4"/>
<text x="40" y="23" text-anchor="middle" font-family="system-ui, sans-serif" font-size="12" fill="#111827">Merge</text>
</g>
<polyline points="60,50 60,90 180,90" fill="none" stroke="#374151" stroke-width="1.5" marker-end="url(#elk-ts-arrow)"/><polyline points="180,50 180,90 180,90" fill="none" stroke="#374151" stroke-width="1.5" marker-end="url(#elk-ts-arrow)"/><polyline points="300,50 300,90 180,90" fill="none" stroke="#374151" stroke-width="1.5" marker-end="url(#elk-ts-arrow)"/><polyline points="180,90 180,90 180,130" fill="none" stroke="#374151" stroke-width="1.5" marker-end="url(#elk-ts-arrow)"/>
<polyline points="180,170 180,210 140,210" fill="none" stroke="#374151" stroke-width="1.5" marker-end="url(#elk-ts-arrow)"/><polyline points="140,210 60,210 60,250" fill="none" stroke="#374151" stroke-width="1.5" marker-end="url(#elk-ts-arrow)"/><polyline points="140,210 180,210 180,250" fill="none" stroke="#374151" stroke-width="1.5" marker-end="url(#elk-ts-arrow)"/>
</g>
</svg>