<svg xmlns="http://www.w3.org/2000/svg" width="207.2779151941624" height="398.7515243627621" viewBox="0 0 207.2779151941624 398.7515243627621">
<defs><marker id="elk-ts-arrow" markerWidth="10" markerHeight="10" refX="9" refY="3" orient="auto"><path d="M0,0 L0,6 L9,3 z" fill="#94a3b8"/></marker></defs>

<g transform="translate(12, 12)">
<g transform="translate(100.65100117740151, 20)">
<rect x="0" y="0" width="40" height="40" fill="#64748b0d" stroke="#64748b" stroke-width="1" rx="6"/>
<text x="20" y="23" text-anchor="middle" font-family="system-ui, sans-serif" font-size="12" fill="#94a3b8">1</text>
</g>
<g transform="translate(49.18840430760058, 85.64701318933888)">
<rect x="0" y="0" width="40" height="40" fill="#64748b0d" stroke="#64748b" stroke-width="1" rx="6"/>
<text x="20" y="23" text-anchor="middle" font-family="system-ui, sans-serif" font-size="12" fill="#94a3b8">2</text>
</g>
<g transform="translate(123.2779151941624, 100.25690769543102)">
<rect x="0" y="0" width="40" height="40" fill="#64748b0d" stroke="#64748b" stroke-width="1" rx="6"/>
<text x="20" y="23" text-anchor="middle" font-family="system-ui, sans-serif" font-size="12" fill="#94a3b8">3</text>
</g>
<g transform="translate(71.54785872296803, 167.3359333702506)">
<rect x="0" y="0" width="40" height="40" fill="#64748b0d" stroke="#64748b" stroke-width="1" rx="6"/>
<text x="20" y="23" text-anchor="middle" font-family="system-ui, sans-serif" font-size="12" fill="#94a3b8">4</text>
</g>
<g transform="translate(20, 234.53242120691976)">
<rect x="0" y="0" width="40" height="40" fill="#64748b0d" stroke="#64748b" stroke-width="1" rx="6"/>
<text x="20" y="23" text-anchor="middle" font-family="system-ui, sans-serif" font-size="12" fill="#94a3b8">5</text>
</g>
<g transform="translate(94.12033668932675, 248.9848917025309)">
<rect x="0" y="0" width="40" height="40" fill="#64748b0d" stroke="#64748b" stroke-width="1" rx="6"/>
<text x="20" y="23" text-anchor="middle" font-family="system-ui, sans-serif" font-size="12" fill="#94a3b8">6</text>
</g>
<g transform="translate(42.85084053725011, 314.7515243627621)">
<rect x="0" y="0" width="40" height="40" fill="#64748b0d" stroke="#64748b" stroke-width="1" rx="6"/>
<text x="20" y="23" text-anchor="middle" font-family="system-ui, sans-serif" font-size="12" fill="#94a3b8">7</text>
</g>
<polyline points="120.65100117740151,60 69.18840430760058,85.64701318933888" fill="none" stroke="#94a3b8" stroke-width="1" marker-end="url(#elk-ts-arrow)"/>
<polyline points="120.65100117740151,60 143.2779151941624,100.25690769543102" fill="none" stroke="#94a3b8" stroke-width="1" marker-end="url(#elk-ts-arrow)"/>
<polyline points="69.18840430760058,125.64701318933888 143.2779151941624,100.25690769543102" fill="none" stroke="#94a3b8" stroke-width="1" marker-end="url(#elk-ts-arrow)"/>
<polyline points="69.18840430760058,125.64701318933888 91.54785872296803,167.3359333702506" fill="none" stroke="#94a3b8" stroke-width="1" marker-end="url(#elk-ts-arrow)"/>
<polyline points="143.2779151941624,140.25690769543104 91.54785872296803,167.3359333702506" fill="none" stroke="#94a3b8" stroke-width="1" marker-end="url(#elk-ts-arrow)"/>
<polyline points="91.54785872296803,207.3359333702506 40,234.53242120691976" fill="none" stroke="#94a3b8" stroke-width="1" marker-end="url(#elk-ts-arrow)"/>
<polyline points="91.54785872296803,207.3359333702506 114.12033668932675,248.9848917025309" fill="none" stroke="#94a3b8" stroke-width="1" marker-end="url(#elk-ts-arrow)"/>
<polyline points="40,274.53242120691976 114.12033668932675,248.9848917025309" fill="none" stroke="#94a3b8" stroke-width="1" marker-end="url(#elk-ts-arrow)"/>
<polyline points="114.12033668932675,288.9848917025309 62.85084053725011,314.7515243627621" fill="none" stroke="#94a3b8" stroke-width="1" marker-end="url(#elk-ts-arrow)"/>
<polyline points="40,274.53242120691976 62.85084053725011,314.7515243627621" fill="none" stroke="#94a3b8" stroke-width="1" marker-end="url(#elk-ts-arrow)"/>
</g>
</svg>